<?xml version="1.0" encoding="UTF-8" standalone="no"?>
<!-- Created with Inkscape (http://www.inkscape.org/) -->

<svg
   xmlns:dc="http://purl.org/dc/elements/1.1/"
   xmlns:cc="http://creativecommons.org/ns#"
   xmlns:rdf="http://www.w3.org/1999/02/22-rdf-syntax-ns#"
   xmlns:svg="http://www.w3.org/2000/svg"
   xmlns="http://www.w3.org/2000/svg"
   xmlns:sodipodi="http://sodipodi.sourceforge.net/DTD/sodipodi-0.dtd"
   xmlns:inkscape="http://www.inkscape.org/namespaces/inkscape"
   width="100"
   height="100"
   viewBox="0 0 100 100"
   id="svg2"
   version="1.1"
   inkscape:version="0.91 r13725"
   sodipodi:docname="VRAvatar.svg">
  <defs
     id="defs4">
    <clipPath
       clipPathUnits="userSpaceOnUse"
       id="clipPath5376">
      <ellipse
         style="opacity:1;fill:#ecf0f1;fill-opacity:1;stroke:none;stroke-width:5;stroke-miterlimit:4;stroke-dasharray:none;stroke-opacity:1"
         id="ellipse5378"
         cx="66.260872"
         cy="39.234821"
         rx="50"
         ry="17.5" />
    </clipPath>
    <clipPath
       clipPathUnits="userSpaceOnUse"
       id="clipPath5542">
      <circle
         style="opacity:1;fill:#ecf0f1;fill-opacity:1;stroke:none;stroke-width:5;stroke-miterlimit:4;stroke-dasharray:none;stroke-opacity:1"
         id="circle5544"
         cx="51.130432"
         cy="61.213078"
         r="50" />
    </clipPath>
    <clipPath
       clipPathUnits="userSpaceOnUse"
       id="clipPath6654">
      <rect
         style="opacity:1;fill:#444b54;fill-opacity:1;stroke:none;stroke-width:5;stroke-miterlimit:4;stroke-dasharray:none;stroke-opacity:1"
         id="rect6656"
         width="40"
         height="10"
         x="-85"
         y="65"
         ry="1.48026" />
    </clipPath>
    <clipPath
       clipPathUnits="userSpaceOnUse"
       id="clipPath6660">
      <path
         style="opacity:1;fill:#444b54;fill-opacity:1;stroke:none;stroke-width:5;stroke-miterlimit:4;stroke-dasharray:none;stroke-opacity:1"
         d="m -60.496094,-26.8125 c -3.02545,-0.04902 -6.418676,0.186156 -9.05664,0.720703 -0.902558,0.182891 -1.788399,0.431912 -2.667969,0.708985 0.149155,0.0394 0.312052,0.07476 0.433594,0.123046 2.393797,0.951032 1.787708,2.193279 0.734375,4.347657 -0.213932,0.437553 -0.74133,0.634438 -1.111328,0.951171 -0.08092,0.182305 -0.187403,0.355088 -0.242188,0.546876 -0.01508,0.05281 -0.01386,0.108573 -0.02539,0.162109 4.191451,-2.86766 8.501464,-4.809681 13.644532,-5.345703 3.568946,-0.371965 7.158073,-0.0183 10.708984,0.449218 0.05727,-0.06808 0.116908,-0.112813 0.175781,-0.169921 -1.10255,-0.594212 -1.730543,-0.602849 -4.345703,-1.40625 -1.795468,-0.314906 -3.57109,-0.782952 -5.386719,-0.945313 -0.885515,-0.07919 -1.852844,-0.126237 -2.861328,-0.142578 z m -20.103515,0.935547 a 50,50 0 0 0 -4.033203,1.427734 c 0.12025,-0.04131 0.193678,-0.06405 0.318359,-0.107422 0.8318,-0.16108 1.659198,-0.352562 2.488281,-0.53125 0.386301,-0.275203 0.778967,-0.540509 1.19336,-0.771484 0.01095,-0.0061 0.02224,-0.0115 0.0332,-0.01758 z m 5.097656,3.695312 c 0.215317,0.0546 0.40546,0.112937 0.5625,0.173829 0.03396,-0.04484 0.06715,-0.09019 0.101562,-0.134766 -0.222299,-0.01784 -0.443746,-0.02982 -0.664062,-0.03906 z m 2.441406,0.28125 c 0.02026,0.027 0.02886,0.04857 0.05078,0.07617 0.132947,0.167367 0.847109,0.09812 0.638672,0.05078 -0.233401,-0.05301 -0.459741,-0.0843 -0.689453,-0.126953 z m 30.699219,0.0332 c 0.08567,0.378674 0.06452,0.849404 -0.113281,1.455079 -0.154018,0.524654 -0.96827,0.931629 -1.734375,1.220703 0.02607,0.920073 0.0659,1.768035 -0.15625,2.710937 -0.05511,0.233905 -0.134305,0.466045 -0.201172,0.699219 1.309543,0.146006 2.617292,0.3069 3.921875,0.462891 0.899077,0.254188 4.154011,0.603492 3.818359,2.662109 -0.538569,3.3031519 -1.58036,1.631858 -2.732422,2.7539062 -0.13228,0.128834 0.239704,0.00188 0.583985,-0.1054682 -0.03532,0.5239746 0.01176,1.0608024 -0.107422,1.5722651 -0.05058,0.2170683 -0.120286,0.4337529 -0.185547,0.6503907 0.660289,0.042405 1.322869,0.1329518 1.982422,0.1601562 -0.06636,0.6108207 -0.09339,1.2268 -0.199219,1.8320312 -0.01372,0.078475 -0.109902,0.1174444 -0.154297,0.1835938 -0.107765,0.1605715 -0.19329,0.3353392 -0.300781,0.4960938 -0.430659,0.6440536 -0.91195,1.2026534 -1.458985,1.7480468 -0.475509,0.4973619 -0.931562,0.8931385 -1.509765,1.2519532 -0.238721,0.1481424 -0.44457,0.3549216 -0.703125,0.4648437 -0.0855,0.036347 0.104403,-0.1533823 0.15625,-0.2304687 -0.236771,0.1698382 -0.466435,0.3507097 -0.705078,0.5175781 -0.315282,0.2627627 -0.638158,0.51878411 -0.958985,0.7753906 -1.178641,1.8391915 -1.795673,2.7667601 -2.43164,3.6503906 0.452638,0.1711892 0.902286,0.3570409 1.347656,0.5429688 0.498199,0.2079822 1.174142,0.3064225 1.412109,0.7910156 0.171465,0.3491695 0.231764,0.7323974 0.265625,1.1230469 1.074265,-0.8154535 2.097468,-1.5507577 3.761719,-2.5546875 1.760295,-1.0618663 4.243302,-2.26009982 6.044922,-3.25000002 0.996529,-0.54754308 1.979058,-1.12053458 2.958984,-1.69726568 0.912384,-0.536979 1.812879,-1.0946857 2.71875,-1.6425781 0.735165,-0.4076706 1.464531,-0.8268011 2.205078,-1.2246093 0.34665,-0.1862138 0.271136,-0.1429582 0.529297,-0.28125 A 50,50 0 0 0 -42.361328,-21.867188 Z m -12.607422,0.638672 c -1.048909,-0.02078 -2.097704,0.0074 -3.142578,0.101563 -2.61493,0.23567 -4.983575,0.905227 -7.236328,1.896484 1.606368,-0.451091 3.236214,-0.822766 4.90625,-1.058593 1.499419,-0.211734 4.904466,-0.411294 6.621094,0.271484 0.562063,0.223557 0.952014,0.747484 1.427734,1.121094 -0.30924,0.86516 -0.545856,1.762178 -0.902344,2.607422 1.199922,-0.02209 2.399464,0.004 3.597656,0.06836 0.0044,-0.522227 0.0059,-1.04475 0.02344,-1.566406 0.0335,-0.996123 0.08515,-1.990676 0.130859,-2.986329 -1.803323,-0.227834 -3.614205,-0.419192 -5.425781,-0.455078 z m -26.820312,1.873047 c -0.48315,-0.0044 -0.965368,0.01017 -1.44336,0.06836 -1.056408,1.056639 -1.862822,1.902126 -2.730469,3.130859 2.179899,-0.255939 4.377239,-0.251732 6.5625,-0.03516 0.436475,-0.843793 0.830768,-1.709861 1.222657,-2.572266 0.05915,-0.09244 0.11387,-0.188501 0.169922,-0.283203 -0.726015,-0.108222 -1.454269,-0.193426 -2.181641,-0.292969 -0.531727,0.01126 -1.066553,-0.01073 -1.599609,-0.01563 z m 37.142578,0.322266 c -0.170233,0.05632 -0.349652,0.116741 -0.488282,0.158203 -0.171804,0.05138 0.278874,-0.05827 0.488282,-0.158203 z M -76.125,-18.662109 c 0.0061,0.02377 0.0083,0.04894 0.01563,0.07227 0,0 0.002,0.002 0.002,0.002 0.0038,-0.02216 0.0079,-0.04424 0.01172,-0.06641 -0.0098,-0.0026 -0.01952,-0.0052 -0.0293,-0.0078 z m -13.267578,1.292968 c -2.756137,1.336721 -5.27589,3.203101 -7.431641,5.316407 -0.745521,0.730841 -1.393199,1.55446 -2.089843,2.3320309 -0.533867,0.9306927 -1.156448,1.8167139 -1.601558,2.7929687 -1.34198,2.9432861 -1.45309,4.4585592 -2.25196,7.64453128 -0.14088,0.56183412 -0.29557,1.12095652 -0.4414,1.68164062 0.72111,-0.7266236 1.45114,-1.4372942 2.19336,-2.1328125 0.43526,-2.4550828 0.71604,-3.892675 2.166011,-6.8183594 0.600553,-1.2117679 1.386018,-2.3268101 2.166015,-3.4316406 0.626982,-0.888092 1.235647,-1.815618 2.048828,-2.537109 1.234244,-1.095078 2.428815,-1.698392 3.71875,-2.228516 0.194129,-0.365008 0.375534,-0.7349 0.583985,-1.09375 0.336947,-0.580057 0.643896,-1.070041 0.939453,-1.525391 z m 31.441406,0.345703 c -0.448716,0.03087 -1.006231,0.09349 -1.755859,0.19336 -3.950988,0.52639 -7.685591,1.817266 -11.300781,3.417969 0.04966,0.05712 0.09636,0.11768 0.148437,0.171875 l -0.490234,2.267578 c 0.861472,-0.615509 1.73215,-1.215497 2.671875,-1.697266 3.437073,-1.762088 7.077047,-2.759592 10.873046,-3.27539 0.187736,-0.365617 0.396621,-0.748188 0.615235,-1.078126 -0.234453,-0.0079 -0.453621,-0.02119 -0.761719,0 z m -41.003906,1.242188 a 50,50 0 0 0 -16.714842,30.484375 c 1.33309,-1.509786 2.85154,-2.871378 4.29492,-4.257813 0.15112,-0.146418 0.30182,-0.293219 0.45312,-0.439453 0.11342,-0.584086 0.23431,-1.166457 0.39063,-1.740234 0.51965,-1.9074261 1.19574,-3.7697209 1.79297,-5.6542969 2.17879,-5.2131949 3.29814,-8.4266385 6.21875,-13.2910161 1.06765,-1.778206 2.21274,-3.528518 3.564452,-5.101562 z m 15.394531,2.929688 c -1.138767,0.03119 -2.265216,0.233095 -3.398437,0.349609 -0.307978,0.11625 -0.907378,0.341364 -1.416016,0.527344 -0.748438,1.561122 -1.369908,3.1736798 -1.904297,4.818359 2.768717,-1.6026624 5.360258,-3.044908 7.556641,-4.271484 0.42523,-0.523352 0.690134,-0.871024 1.078125,-1.363282 -0.738506,-0.04409 -1.429448,-0.07387 -1.916016,-0.06055 z m 31.248047,0.06641 c -1.094872,-0.0037 -2.190537,0.04519 -3.285156,0.140625 -0.374938,0.635548 -0.666364,1.065505 -1.416016,2.167969 -1.165326,1.443802 -2.146778,3.0235452 -3.253906,4.5097651 0.162418,0.059426 0.303858,0.1446065 0.378906,0.3007813 0.489295,1.0182196 0.09257,2.2579779 0.138672,3.3867187 -0.481984,0.2998084 -0.961883,0.6041652 -1.447266,0.8984375 -1.108939,0.67231333 -1.082891,0.53911646 -2.033203,1.40625003 -1.775572,1.62016037 -0.118089,0.36053232 -2.240234,2.18359377 -0.719588,0.6181728 -1.476597,1.1913442 -2.214844,1.7871094 -0.612004,0.4311904 -1.224324,0.8612207 -1.835937,1.2929687 1.406355,-0.592581 2.933286,-1.1865083 5.199218,-2.1132813 1.579098,-0.3226299 3.141836,-0.7538175 4.72461,-1.0527343 0.757756,-0.9673376 1.546351,-1.98945395 2.472656,-3.1464844 1.390529,-2.1257534 2.80895,-4.2333963 4.171875,-6.3769531 1.520721,-2.391734 2.304042,-3.5811354 3.066406,-5.0000004 0.0093,-0.101503 0.02049,-0.203309 0.0293,-0.304687 -0.818277,-0.04454 -1.636171,-0.07728 -2.455078,-0.08008 z m 6.412109,0.419922 c -0.165723,0.339349 -0.341008,0.674874 -0.519531,1.009765 -0.250048,2.6508201 -0.697789,5.2767336 -1.410156,7.8417971 0.23187,-0.102739 0.455441,-0.2023048 0.710937,-0.3164062 0.896032,-0.3266047 1.402535,-0.5616285 2.277344,-0.6699219 0.588234,-0.96454 1.152904,-1.9334414 1.681641,-2.9785156 0.20423,-0.4036701 0.429467,-0.8035639 0.554687,-1.2382813 0.09687,-0.336298 0.0691,-0.6966459 0.103516,-1.0449219 0.105162,-1.1804762 0.0037,-1.6612972 0.285156,-2.1855472 -1.224872,-0.149625 -2.452987,-0.286561 -3.683594,-0.417968 z m -14.449218,0.443359 c -2.215496,0.492963 -4.395283,1.208367 -6.386719,2.2050781 -1.426475,0.7139482 -2.673081,1.7407969 -4.009766,2.6113281 -0.51717,0.4614123 -0.819613,0.7236953 -1.203125,1.0605469 -0.06933,0.3111674 -0.100462,0.4586819 -0.210937,0.9980469 -0.143541,1.0406004 -0.352648,2.0642501 -0.589844,3.078125 0.895717,-0.4265443 1.878337,-0.8826912 3.234375,-1.4863281 1.351521,-0.6016261 2.712328,-1.1942056 4.105469,-1.6914063 0.681424,-0.8374066 1.34427,-1.6653063 1.941406,-2.4355468 1.091481,-1.4078936 2.040652,-2.9216568 3.119141,-4.3398438 z m -14.513672,0.328125 c -0.03157,0.01585 -0.0622,0.03295 -0.09375,0.04883 -0.456948,0.947351 -0.918531,1.8657909 -1.59961,3.2753908 -0.701647,1.2319945 -1.364313,2.4877574 -2.019531,3.7480468 0.635987,-0.7145359 1.220569,-1.3500826 1.648438,-1.7773437 0.561294,-0.5604982 1.148533,-1.0928869 1.74414,-1.6171875 0.113863,-1.3504982 -0.130638,-2.3200104 0.320313,-3.6777344 z m 1.035156,0.230469 c 0.0026,0.01566 8.67e-4,0.03343 0.0039,0.04883 0.157257,0.05733 0.622586,0.246292 0.472657,0.171875 -0.177646,-0.08817 -0.319309,-0.148033 -0.476563,-0.220703 z M -93.6875,-8.1035156 c -0.0074,0.01018 -0.01408,0.021086 -0.02148,0.03125 -0.661381,0.9078973 -1.338419,1.8172137 -1.851563,2.8164062 -0.363016,0.7068636 -0.632531,1.2986507 -0.857422,1.8476563 0.523881,-0.3494038 1.084303,-0.7120509 1.691407,-1.0917969 0.307178,-1.2130271 0.656528,-2.4145579 1.039062,-3.6035156 z m 9.761719,3.7265625 c -2.879096,3.50735796 -5.793678,6.9879315 -8.935547,10.2597656 -0.01559,0.440111 0.0028,1.8029341 0.04687,3.3046875 0.443329,-0.3506204 0.932069,-0.7605648 1.566406,-1.3300781 1.057804,-0.9497041 2.077621,-1.9514675 2.976563,-3.0527344 1.07193,-1.3131902 2.004019,-2.7135693 2.871093,-4.15234375 0.177336,-0.77800931 0.410828,-1.64351926 0.867188,-3.11328125 0.198266,-0.63854 0.391741,-1.2820394 0.607422,-1.9160156 z M -88.996094,-3.8125 c -0.896947,0.5204451 -1.819542,1.0478323 -2.634765,1.5390625 -0.162545,0.6922869 -0.301968,1.38706151 -0.449219,2.08203125 1.047018,-1.18992365 2.067257,-2.40413615 3.083984,-3.62109375 z m 37.275391,1.0078125 c -0.216172,0.3289695 -0.429575,0.6597864 -0.646485,0.9882813 0.122742,-0.060939 0.244789,-0.1236874 0.367188,-0.1855469 0.06567,-0.1854496 0.134368,-0.3566576 0.199219,-0.5488281 0.0283,-0.083854 0.05249,-0.1697284 0.08008,-0.2539063 z m -9.181641,0.2480469 c -0.13772,0.015297 -0.226036,0.03836 -0.355468,0.054687 0.02542,0.040973 0.04568,0.08469 0.07227,0.125 0.06145,0.093175 0.394133,-0.1920086 0.283203,-0.1796875 z m -15.58789,1.0175781 c -0.300849,0.3482215 -0.52228,0.59344821 -0.91211,1.05273438 -0.554717,0.65355326 -1.118369,1.30285328 -1.654297,1.97265622 0.723077,-0.4311743 1.42024,-0.831849 1.988282,-1.16406248 0.210385,-0.61446886 0.404089,-1.23419176 0.578125,-1.86132812 z m 54.697265,0.765625 c -3.082974,3.4521641 -5.974551,7.0940373 -9.884765,9.6875 -0.720226,0.4302206 -1.431194,0.8758909 -2.144532,1.3183595 -0.816696,0.715622 -1.633891,1.429579 -2.451172,2.144531 -1.819258,1.394917 -3.645611,2.78078 -5.480468,4.154297 -0.483729,0.652013 -0.970831,1.301371 -1.441406,1.962891 -0.622727,0.875409 -1.213144,1.772069 -1.826172,2.654297 -0.517356,0.744541 -1.058996,1.471939 -1.564454,2.224609 -0.270908,0.403407 -0.548124,0.806639 -0.78125,1.232422 0.148336,0.174892 0.288053,0.355963 0.394532,0.558593 0.167881,0.319481 0.0063,1.027799 -0.0625,1.408204 -0.623539,3.444009 -4.895097,-3.928128 -3.458985,-0.736328 0.239756,0.532865 0.401139,0.427278 1.216797,1.261718 0.03498,0.03579 -0.09691,-0.02952 -0.144531,-0.04492 l -1.380859,-1.265625 c -0.04799,-0.408934 -0.185174,-0.817031 -0.142578,-1.226562 0.08043,-0.773287 0.293465,-1.326543 0.591796,-1.861328 -0.189463,0.128538 -0.374422,0.262868 -0.564453,0.390625 -0.320867,0.26196 -0.652047,0.513328 -0.96289,0.787109 -0.172023,0.151513 -0.294133,0.568396 -0.480469,0.542969 -0.664358,1.127845 -1.679005,1.171548 -2.88086,-2.134766 -0.01173,-0.03228 -0.01117,-0.06164 -0.01172,-0.0918 -0.02925,0.135267 -0.05329,0.27226 -0.08789,0.40625 -0.179234,0.6941 -0.163264,-0.118351 0.08789,-0.40625 -4.87e-4,-0.04444 0.0096,-0.08839 0.0293,-0.128906 0.01352,-0.06442 0.02771,-0.12889 0.04102,-0.193359 -0.336781,0.359251 -0.675047,0.717098 -1.009765,1.078125 -1.34931,1.455361 -4.679829,5.148438 -6.089844,6.523437 -1.000466,0.975622 -2.071571,1.875027 -3.113281,2.806641 A 45.955005,45.95487 0 0 1 -27.529297,53.580078 50,50 0 0 0 -16.25,22 50,50 0 0 0 -21.792969,-0.7734375 Z m -74.035156,1.25195312 c -0.678799,0.51365106 -1.316424,1.06166488 -1.943359,1.61914058 -0.04145,0.2199523 -0.06566,0.3740609 -0.113282,0.6152344 -0.197586,2.4495984 -0.228788,2.8021297 -0.28125,3.4726563 0.624105,-0.5924083 1.239819,-1.1916933 1.84375,-1.8027344 0.04949,-0.6986086 0.106463,-1.3968006 0.148438,-2.0957031 0.1108,-0.6024147 0.227769,-1.2055891 0.345703,-1.80859378 z m 25.115234,0.5 c -1.376766,0.64519468 -2.499958,1.21200428 -3.49414,1.76953128 -0.272623,0.7092795 -0.564834,1.4108491 -0.878907,2.1035156 0.569741,-0.3901682 1.094866,-0.7529483 1.763672,-1.2148437 0.09366,-0.089957 0.190061,-0.1770984 0.283204,-0.2675782 0.741357,-0.7201658 1.527589,-1.5329071 2.326171,-2.39062498 z M -101.68359,5.875 c -0.37886,0.3835991 -0.75476,0.7668916 -1.14063,1.1503906 -0.73831,0.7337649 -1.48084,1.4631349 -2.22266,2.1933594 -0.10931,0.3957393 -0.21718,0.791765 -0.32617,1.1875 -0.11173,0.573339 -0.26972,1.140342 -0.33593,1.720703 -0.0109,0.09594 -0.008,0.192512 -0.0117,0.289063 1.59301,-1.184884 2.76172,-2.056106 3.86914,-2.9550785 0.0137,-0.8537974 0.10943,-2.8488194 0.16797,-3.5859375 z m 22.148434,0.00586 c -0.09205,0.054107 -0.131471,0.07899 -0.226563,0.1347656 -1.334652,0.8474314 -2.032473,1.2906022 -2.947265,1.8691406 0,0 -0.002,0.00195 -0.002,0.00195 -0.03189,0.7045333 -0.04516,2.0032682 -0.03711,2.6640618 0.202942,-0.169072 0.408775,-0.334815 0.613281,-0.501953 0.03492,-0.049412 0.07264,-0.097002 0.107422,-0.1464838 0.911086,-1.2961678 1.740119,-2.6410105 2.492188,-4.0214844 z m 31.771484,0.1523437 c -0.229724,0.3066145 -0.263748,0.3526774 -0.544922,0.7304688 -1.236959,1.368092 -2.356529,2.8515879 -3.710937,4.1035165 -1.768801,1.634965 -3.708128,3.039058 -5.740235,4.296874 -0.936051,1.304395 -1.879511,2.60276 -2.884765,3.84961 3.622677,-1.554381 3.139222,-1.253307 5.421875,-2.269531 1.627233,-1.737974 3.23771,-3.492129 4.759765,-5.324219 1.00932,-1.399267 1.761893,-2.3316547 2.574219,-3.7539068 0.230107,-0.4028806 0.366659,-0.860203 0.632813,-1.2402344 0.03515,-0.050194 0.105871,-0.1337601 0.15625,-0.1992187 -0.2153,-0.073361 -0.432535,-0.1406687 -0.654297,-0.1914063 -0.0029,-6.548e-4 -0.0069,-0.0013 -0.0098,-0.00195 z M -63.666016,6.71875 c -4.762791,1.8988672 -6.253769,2.2900978 -10.927734,5.324219 -0.955482,0.620254 -1.864089,1.280673 -2.751953,1.958984 0.02969,-0.0071 0.06192,-0.01809 0.0918,-0.02539 0.280841,-0.2531 0.537345,-0.460946 0.666015,-0.478515 0.06868,-0.0094 0.138209,-0.0056 0.207032,-0.01172 0.149118,-0.17457 0.277382,-0.282232 0.322265,-0.115234 0.0085,0.03178 0.008,0.06387 0.01367,0.0957 0.183991,-0.0045 0.368098,-0.0022 0.552734,0.0078 0.135521,-0.04341 0.257616,-0.07783 0.398438,-0.125 2.505402,-0.839209 6.877233,-2.938338 9.029297,-4.5898434 0.910451,-0.6986848 1.686122,-1.3705058 2.398437,-2.0410156 z m 23.597657,1.3652344 c -0.721274,0.539097 -1.425267,1.0956993 -2.427735,1.8652344 -0.65485,0.5906172 -1.347799,1.1932792 -2.041015,1.8085932 0.900411,-0.417307 1.804739,-0.826724 2.707031,-1.240234 0.574057,-0.8201503 1.165307,-1.628826 1.761719,-2.4335936 z m -56.314453,1.2675781 c -0.727056,0.6779405 -1.405277,1.3010255 -1.96875,1.7910155 -0.0094,0.501587 -0.006,0.372789 -0.02344,1.119141 0.277231,-0.130677 0.676123,-0.315005 0.875,-0.40625 0.479962,-0.244583 0.801086,-0.400086 1.169922,-0.582031 -0.01944,-0.640507 -0.02908,-1.2814294 -0.05273,-1.9218755 z m 8.615234,1.8105465 c -0.732984,0.492635 -1.501934,1.012221 -2.486328,1.689453 -0.888697,0.611396 -1.763436,1.243207 -2.640625,1.871094 -0.0092,0.06256 -0.01713,0.126021 -0.02734,0.1875 1.326121,0.07199 2.653224,0.119847 3.980469,0.126953 0.0095,-0.04807 0.01982,-0.09647 0.0293,-0.144531 0.490621,-1.586442 0.819691,-2.698921 1.144531,-3.730469 z m -24.138672,4.673829 c -0.61302,0.614372 -1.20805,1.242361 -1.73437,1.916015 -0.0499,0.06383 -0.0888,0.135913 -0.13672,0.201172 0.61372,-0.288547 1.2073,-0.622554 1.78711,-0.988281 0.0214,-0.376569 0.0502,-0.753039 0.084,-1.128906 z m 15.46875,1.271484 c -0.499328,0.317429 -0.998326,0.635238 -1.488281,0.966797 -0.152388,0.103123 -0.413601,0.294177 -0.591797,0.417969 0.0064,0.208695 0.01782,0.416765 0.0293,0.625 0.87159,-0.29376 1.741312,-0.591805 2.599609,-0.921876 0.0269,-0.01035 0.03782,-0.01514 0.06445,-0.02539 -0.240794,-0.330672 -0.436991,-0.690874 -0.613281,-1.0625 z m -9.87109,0.146484 c -0.74167,0.55705 -1.48967,1.108057 -2.25782,1.652344 -0.0376,0.60055 -0.0836,1.200062 -0.17187,1.796875 -0.0232,0.167047 -0.0328,0.338025 -0.0449,0.507813 0.12483,0.02707 0.25333,0.05796 0.3789,0.08594 1.01449,-0.895127 1.54192,-1.20415 2.99219,-2.205078 0.56285,-0.409762 1.3232,-0.964452 2.06055,-1.5 -1.00233,0.03759 -1.98973,-0.08509 -2.95703,-0.337891 z m -6.47852,4.107422 c -0.70459,0.302862 -1.42231,0.569908 -2.17187,0.744141 -0.14616,0.03397 -0.67988,0.08564 -1.2793,0.107422 a 50,50 0 0 0 2.23437,14.4375 c 0.29451,-0.473492 0.59601,-0.943138 0.88477,-1.419922 0.80147,-1.027154 1.50133,-2.142861 2.4043,-3.082031 0.88134,-0.916666 1.92241,-1.666406 2.91992,-2.455079 1.74115,-1.376626 3.55969,-2.644827 5.39062,-3.894531 -1.12433,-0.03456 -2.23901,-0.191773 -3.34961,-0.382812 -0.8362,0.261619 -1.67144,0.525883 -2.50781,0.787109 -0.20563,0.241923 -0.42209,0.423817 -0.6582,0.300781 -0.035,-0.01823 -0.065,-0.0471 -0.0996,-0.06641 -0.006,0.0019 -0.0117,0.004 -0.0176,0.0059 -0.5093,0.913613 -0.73268,1.231412 -1.27734,-0.9375 -0.33012,-0.02551 -0.65525,-0.267795 -0.86524,-0.523437 -0.54814,0.115467 -1.12857,-0.200674 -1.66015,-1.390625 -0.51964,-1.16322 -0.39003,-1.844205 0.0527,-2.230469 z m 1.60742,3.621094 c 0.1548,-0.03261 0.30762,-0.09785 0.45508,-0.191406 -0.0749,-0.117253 -0.1444,-0.23347 -0.20898,-0.355469 -0.0477,-0.0066 -0.0948,-0.01749 -0.14258,-0.02344 -0.42972,-0.05342 -0.3566,0.262197 -0.10352,0.570313 z m 0.45508,-0.191406 c 0.11464,0.179479 0.23086,0.358679 0.36719,0.523437 -0.0471,-0.192608 -0.10375,-0.446249 -0.15625,-0.677734 -0.0694,0.0567 -0.13909,0.108714 -0.21094,0.154297 z m 0.36719,0.523437 c 0.0133,0.05432 0.0301,0.140045 0.043,0.191406 0.0452,0.0035 0.0887,0.0015 0.13281,-0.0039 -0.0583,-0.06367 -0.1207,-0.120929 -0.17578,-0.1875 z m 31.900389,-2.980469 c -0.538594,0.231017 -1.079891,0.455533 -1.617188,0.689454 -0.184882,0.145716 -0.471082,0.356285 -0.632812,0.486328 -0.172568,0.138756 -0.295466,0.243044 -0.455078,0.373046 0.947259,-0.512592 1.896661,-1.021145 2.839843,-1.541015 -0.04496,-0.0016 -0.08982,-0.006 -0.134765,-0.0078 z M -91.625,22.884766 c -0.407807,0.206292 -0.802629,0.41449 -1.234375,0.611328 -0.585573,0.430541 -1.176418,0.852403 -1.771484,1.269531 0.02609,-0.01535 0.04191,-0.02347 0.06836,-0.03906 0.863693,-0.509122 1.68973,-1.079013 2.542969,-1.605468 0.02693,-0.01662 0.322547,-0.192694 0.394531,-0.236328 z m 30.498047,0.210937 c -0.539089,0.245376 -1.079269,0.486866 -1.619141,0.730469 -1.902861,0.785365 -2.359284,1.030808 -4.208984,1.603516 -0.03572,0.01106 -0.27851,0.07183 -0.371094,0.09766 -0.950093,0.68869 -1.937045,1.329188 -2.955078,1.908203 -1.1859,0.67449 -2.271055,1.186254 -3.337891,1.625 -0.954381,1.526167 -1.972708,3.01025 -3.076171,4.435547 a 45.955005,45.95487 0 0 1 4.773437,-0.861328 c 1.408547,-0.651773 2.186483,-1.459568 4.007813,-2.847657 1.022154,-0.915634 2.083653,-1.790245 3.066406,-2.748047 0.848236,-0.826699 2.318102,-2.41472 3.720703,-3.943359 z m 13.673828,1.658203 c -0.01826,0.03613 -0.04323,0.06883 -0.06055,0.105469 -0.05818,0.123077 -0.09314,0.461561 0.03125,0.40625 0.140788,-0.0626 0.05224,-0.30319 0.07813,-0.455078 -0.01612,-0.01905 -0.03258,-0.03769 -0.04883,-0.05664 z m -31.748047,6.205078 c -0.330398,0.103048 -0.630576,0.193551 -0.978516,0.304688 -1.115452,0.124439 -1.914195,0.231515 -2.554687,0.314453 -0.250466,0.121349 -0.46198,0.21398 -0.701172,0.328125 0.363674,0.05122 0.724894,0.112682 1.0625,0.25 0.746786,0.303747 1.17173,0.645305 1.339844,1.054688 0.645958,-0.727048 1.248848,-1.482033 1.832031,-2.251954 z m -25.910158,3.941407 c -0.70149,0.02701 -1.40479,0.03884 -2.10547,0.08203 -0.42879,0.02643 -0.98348,0.436613 -1.28125,0.126953 -0.033,-0.03433 -0.0546,-0.05882 -0.084,-0.08984 -0.64721,0.724694 -1.14669,1.574037 -1.72656,2.355469 -0.13991,0.234685 -0.28407,0.466652 -0.42774,0.699219 0.643,-0.185903 1.29331,-0.350249 1.8711,-0.515625 0.90868,-0.260091 1.81549,-0.526832 2.7207,-0.798828 0.46922,-0.630175 0.9537,-1.248358 1.44726,-1.859375 -0.13801,0.0013 -0.27604,-0.0016 -0.41406,0 z m 14.20508,0.304687 c -1.313475,0.546536 -2.739858,1.136403 -4.546875,1.894531 -1.266999,0.408376 -1.717147,0.552335 -2.496094,0.804688 -0.115642,0.206036 -0.241034,0.406517 -0.351562,0.615234 -0.193122,0.364682 -0.355533,0.74549 -0.513672,1.126953 0.0309,0.01983 0.06641,0.03793 0.0957,0.05859 0.131351,-0.05486 0.481404,-0.201149 0.583984,-0.24414 2.599908,-1.089645 5.207552,-2.16238 7.654297,-3.556641 -0.02762,-0.0309 -0.06354,-0.05382 -0.08789,-0.08789 -0.135352,-0.189317 -0.242407,-0.396526 -0.337891,-0.611328 z m -18.21875,6.070313 c -0.54956,0.136445 -1.09695,0.281354 -1.62109,0.492187 -0.2725,0.109613 -0.51815,0.275885 -0.77735,0.414063 -0.10484,0.08071 -0.18351,0.132156 -0.2832,0.208984 a 50,50 0 0 0 1.17969,2.5 c 0.0748,-0.03868 0.15172,-0.07282 0.22656,-0.111328 0.34067,-1.290734 0.57363,-2.149423 1.27539,-3.503906 z m 9.10352,3.84375 c -0.3222,0.06972 -0.64978,0.125564 -0.9668,0.208984 -0.0199,0.0052 -0.0388,0.01399 -0.0586,0.01953 -0.024,0.06841 -0.0482,0.136678 -0.0723,0.205078 0.36699,-0.141883 0.73126,-0.290263 1.09766,-0.433593 z m -5.14258,1.15039 c -0.30818,0.133597 -0.75337,0.315147 -1.03125,0.4375 0.27994,-0.0076 0.55992,-0.01188 0.83984,-0.01953 0.0675,-0.139345 0.13567,-0.277886 0.19141,-0.417969 z m 0.17773,7.259766 c -0.01,0.0012 -0.0195,8.54e-4 -0.0293,0.002 a 50,50 0 0 0 0.0137,0.01953 45.955005,45.95487 0 0 1 0.0156,-0.02148 z M -83.126953,69 A 50,50 0 0 0 -66.25,72 50,50 0 0 0 -49.332031,69 l -33.794922,0 z"
         id="path6662"
         clip-path="url(#clipPath6654)"
         inkscape:connector-curvature="0"
         transform="translate(-15,28)" />
    </clipPath>
  </defs>
  <sodipodi:namedview
     id="base"
     pagecolor="#ffffff"
     bordercolor="#666666"
     borderopacity="1.0"
     inkscape:pageopacity="0"
     inkscape:pageshadow="2"
     inkscape:zoom="5.75"
     inkscape:cx="56.869565"
     inkscape:cy="50"
     inkscape:document-units="px"
     inkscape:current-layer="layer4"
     showgrid="true"
     inkscape:window-width="1301"
     inkscape:window-height="744"
     inkscape:window-x="65"
     inkscape:window-y="24"
     inkscape:window-maximized="1"
     units="px"
     guidetolerance="10000"
     showguides="true"
     inkscape:guide-bbox="true"
     inkscape:object-paths="true" />
  <metadata
     id="metadata7">
    <rdf:RDF>
      <cc:Work
         rdf:about="">
        <dc:format>image/svg+xml</dc:format>
        <dc:type
           rdf:resource="http://purl.org/dc/dcmitype/StillImage" />
        <dc:title />
      </cc:Work>
    </rdf:RDF>
  </metadata>
  <g
     inkscape:groupmode="layer"
     id="layer4"
     inkscape:label="vr-avatar"
     style="display:inline">
    <circle
       inkscape:label="#path6633"
       r="50"
       cy="50"
       cx="50"
       id="circle4074"
       style="opacity:1;fill:#f5f5f5;fill-opacity:1;stroke:none;stroke-width:5;stroke-miterlimit:4;stroke-dasharray:none;stroke-opacity:1" />
    <g
       id="vr-body"
       inkscape:label="#g4464">
      <path
         id="path3888"
         d="M 50,58.808594 A 40,40 0 0 0 13.03125,83.582031 50,50 0 0 0 50,100 50,50 0 0 0 86.957031,83.589844 40,40 0 0 0 50,58.808594 Z"
         style="opacity:1;fill:#444b54;fill-opacity:1;stroke:none;stroke-width:5;stroke-miterlimit:4;stroke-dasharray:none;stroke-opacity:1"
         inkscape:connector-curvature="0" />
      <ellipse
         ry="12"
         rx="24"
         cy="65.208664"
         cx="50"
         id="path3890"
         style="opacity:1;fill:#444b54;fill-opacity:1;stroke:none;stroke-width:5;stroke-miterlimit:4;stroke-dasharray:none;stroke-opacity:1" />
      <path
         id="ellipse3892"
         d="m 50.00046,58.808661 a 40,40 0 0 0 -17.860936,4.225 18,9 0 0 0 17.860936,7.975 18,9 0 0 0 17.860944,-7.939062 40,40 0 0 0 -17.860944,-4.260938 z"
         style="opacity:1;fill:#f8bd97;fill-opacity:1;stroke:none;stroke-width:5;stroke-miterlimit:4;stroke-dasharray:none;stroke-opacity:1"
         inkscape:connector-curvature="0" />
      <g
         id="g3964"
         transform="matrix(1.3846154,0,0,1.3846113,-49.247544,-14.766763)">
        <g
           transform="matrix(0.05901527,0,0,0.05901527,54.857478,65.631593)"
           id="g3966">
          <path
             style="opacity:1;fill:#b5afa2;fill-opacity:1;stroke:none;stroke-width:5;stroke-miterlimit:4;stroke-dasharray:none;stroke-opacity:1"
             d="m 187.65218,-32.130428 a 25,25 0 0 1 -25,24.9999997 25,25 0 0 1 -25,-24.9999997 25,25 0 0 1 25,-25 25,25 0 0 1 25,25 z"
             id="path3968"
             inkscape:connector-curvature="0" />
          <path
             style="opacity:1;fill:#444b54;fill-opacity:1;stroke:none;stroke-width:5;stroke-miterlimit:4;stroke-dasharray:none;stroke-opacity:1"
             d="m 175.15218,-32.130428 a 12.5,12.5 0 0 1 -12.5,12.5 12.5,12.5 0 0 1 -12.5,-12.5 12.5,12.5 0 0 1 12.5,-12.5 12.5,12.5 0 0 1 12.5,12.5 z"
             id="path3970"
             inkscape:connector-curvature="0" />
        </g>
        <g
           transform="matrix(0.07,0,0,0.07,46.156005,75.780117)"
           id="g3972">
          <path
             style="opacity:1;fill:#f0f1f5;fill-opacity:1;stroke:none;stroke-width:5;stroke-miterlimit:4;stroke-dasharray:none;stroke-opacity:1"
             d="m 261.43478,-178.43478 c 2.77,0 5,4.28846 5,9.61538 l 0,230.769231 c 0,5.326923 -2.23,9.615385 -5,9.615385 -2.77,0 -5,-4.288462 -5,-9.615385 l 0,-230.769231 c 0,-5.32692 2.23,-9.61538 5,-9.61538 z"
             id="path3974"
             inkscape:connector-curvature="0" />
          <g
             id="g3976">
            <path
               style="opacity:1;fill:#fffce6;fill-opacity:1;stroke:none;stroke-width:5;stroke-miterlimit:4;stroke-dasharray:none;stroke-opacity:1"
               d="m 261.43478,66.565224 c 1.385,0 2.5,1.115 2.5,2.5 l 0,20 c 0,1.385 -1.115,2.5 -2.5,2.5 -1.385,0 -2.5,-1.115 -2.5,-2.5 l 0,-20 c 0,-1.385 1.115,-2.5 2.5,-2.5 z"
               id="path3978"
               inkscape:connector-curvature="0" />
            <g
               transform="matrix(0.19994183,0,0,0.19994183,275.63728,55.035917)"
               style="fill:#e7e7de;fill-opacity:1"
               id="g3980">
              <path
                 transform="matrix(0.8660254,0.5,-0.5,0.8660254,0,0)"
                 style="opacity:1;fill:#e7e7de;fill-opacity:1;stroke:none;stroke-width:5;stroke-miterlimit:4;stroke-dasharray:none;stroke-opacity:1"
                 d="m -22.101412,91.285591 c 1.385,0 2.5,1.115 2.5,2.5 l 0,19.999999 c 0,1.385 -1.115,2.5 -2.5,2.5 -1.385,0 -2.5,-1.115 -2.5,-2.5 l 0,-19.999999 c 0,-1.385 1.115,-2.5 2.5,-2.5 z"
                 id="path3982"
                 inkscape:connector-curvature="0" />
              <path
                 transform="matrix(0.8660254,-0.5,0.5,0.8660254,0,0)"
                 style="opacity:1;fill:#e7e7de;fill-opacity:1;stroke:none;stroke-width:5;stroke-miterlimit:4;stroke-dasharray:none;stroke-opacity:1"
                 d="m -100.93166,20.252411 c 1.384996,0 2.499996,1.115 2.499996,2.5 l 0,20 c 0,1.385 -1.115,2.5 -2.499996,2.5 -1.385,0 -2.5,-1.115 -2.5,-2.5 l 0,-20 c 0,-1.385 1.115,-2.5 2.5,-2.5 z"
                 id="path3984"
                 inkscape:connector-curvature="0" />
            </g>
            <g
               id="g3986"
               style="fill:#e7e7de;fill-opacity:1"
               transform="matrix(0.19994183,0,0,0.19994183,275.63728,63.303917)">
              <path
                 transform="matrix(0.8660254,0.5,-0.5,0.8660254,0,0)"
                 style="opacity:1;fill:#e7e7de;fill-opacity:1;stroke:none;stroke-width:5;stroke-miterlimit:4;stroke-dasharray:none;stroke-opacity:1"
                 d="m -22.101412,91.285591 c 1.385,0 2.5,1.115 2.5,2.5 l 0,19.999999 c 0,1.385 -1.115,2.5 -2.5,2.5 -1.385,0 -2.5,-1.115 -2.5,-2.5 l 0,-19.999999 c 0,-1.385 1.115,-2.5 2.5,-2.5 z"
                 id="path3988"
                 inkscape:connector-curvature="0" />
              <path
                 transform="matrix(0.8660254,-0.5,0.5,0.8660254,0,0)"
                 style="opacity:1;fill:#e7e7de;fill-opacity:1;stroke:none;stroke-width:5;stroke-miterlimit:4;stroke-dasharray:none;stroke-opacity:1"
                 d="m -100.93166,20.252411 c 1.384996,0 2.499996,1.115 2.499996,2.5 l 0,20 c 0,1.385 -1.115,2.5 -2.499996,2.5 -1.385,0 -2.5,-1.115 -2.5,-2.5 l 0,-20 c 0,-1.385 1.115,-2.5 2.5,-2.5 z"
                 id="path3990"
                 inkscape:connector-curvature="0" />
            </g>
            <g
               transform="matrix(0.19994183,0,0,0.19994183,275.63728,71.571917)"
               style="fill:#e7e7de;fill-opacity:1"
               id="g3992">
              <path
                 transform="matrix(0.8660254,0.5,-0.5,0.8660254,0,0)"
                 style="opacity:1;fill:#e7e7de;fill-opacity:1;stroke:none;stroke-width:5;stroke-miterlimit:4;stroke-dasharray:none;stroke-opacity:1"
                 d="m -22.101412,91.285591 c 1.385,0 2.5,1.115 2.5,2.5 l 0,19.999999 c 0,1.385 -1.115,2.5 -2.5,2.5 -1.385,0 -2.5,-1.115 -2.5,-2.5 l 0,-19.999999 c 0,-1.385 1.115,-2.5 2.5,-2.5 z"
                 id="path3994"
                 inkscape:connector-curvature="0" />
              <path
                 transform="matrix(0.8660254,-0.5,0.5,0.8660254,0,0)"
                 style="opacity:1;fill:#e7e7de;fill-opacity:1;stroke:none;stroke-width:5;stroke-miterlimit:4;stroke-dasharray:none;stroke-opacity:1"
                 d="m -100.93166,20.252411 c 1.384996,0 2.499996,1.115 2.499996,2.5 l 0,20 c 0,1.385 -1.115,2.5 -2.499996,2.5 -1.385,0 -2.5,-1.115 -2.5,-2.5 l 0,-20 c 0,-1.385 1.115,-2.5 2.5,-2.5 z"
                 id="path3996"
                 inkscape:connector-curvature="0" />
            </g>
          </g>
        </g>
      </g>
      <g
         transform="matrix(1.3846154,0,0,1.3846113,-29.247544,-14.766763)"
         id="g4000">
        <g
           id="g4002"
           transform="matrix(0.05901527,0,0,0.05901527,54.857478,65.631593)">
          <path
             inkscape:connector-curvature="0"
             id="path4004"
             d="m 187.65218,-32.130428 a 25,25 0 0 1 -25,24.9999997 25,25 0 0 1 -25,-24.9999997 25,25 0 0 1 25,-25 25,25 0 0 1 25,25 z"
             style="opacity:1;fill:#b5afa2;fill-opacity:1;stroke:none;stroke-width:5;stroke-miterlimit:4;stroke-dasharray:none;stroke-opacity:1" />
          <path
             inkscape:connector-curvature="0"
             id="path4006"
             d="m 175.15218,-32.130428 a 12.5,12.5 0 0 1 -12.5,12.5 12.5,12.5 0 0 1 -12.5,-12.5 12.5,12.5 0 0 1 12.5,-12.5 12.5,12.5 0 0 1 12.5,12.5 z"
             style="opacity:1;fill:#444b54;fill-opacity:1;stroke:none;stroke-width:5;stroke-miterlimit:4;stroke-dasharray:none;stroke-opacity:1" />
        </g>
        <g
           id="g4008"
           transform="matrix(0.07,0,0,0.07,46.156005,75.780117)">
          <path
             inkscape:connector-curvature="0"
             id="path4010"
             d="m 261.43478,-178.43478 c 2.77,0 5,4.28846 5,9.61538 l 0,230.769231 c 0,5.326923 -2.23,9.615385 -5,9.615385 -2.77,0 -5,-4.288462 -5,-9.615385 l 0,-230.769231 c 0,-5.32692 2.23,-9.61538 5,-9.61538 z"
             style="opacity:1;fill:#f0f1f5;fill-opacity:1;stroke:none;stroke-width:5;stroke-miterlimit:4;stroke-dasharray:none;stroke-opacity:1" />
          <g
             id="g4012">
            <path
               inkscape:connector-curvature="0"
               id="path4014"
               d="m 261.43478,66.565224 c 1.385,0 2.5,1.115 2.5,2.5 l 0,20 c 0,1.385 -1.115,2.5 -2.5,2.5 -1.385,0 -2.5,-1.115 -2.5,-2.5 l 0,-20 c 0,-1.385 1.115,-2.5 2.5,-2.5 z"
               style="opacity:1;fill:#fffce6;fill-opacity:1;stroke:none;stroke-width:5;stroke-miterlimit:4;stroke-dasharray:none;stroke-opacity:1" />
            <g
               id="g4016"
               style="fill:#e7e7de;fill-opacity:1"
               transform="matrix(0.19994183,0,0,0.19994183,275.63728,55.035917)">
              <path
                 inkscape:connector-curvature="0"
                 id="path4018"
                 d="m -22.101412,91.285591 c 1.385,0 2.5,1.115 2.5,2.5 l 0,19.999999 c 0,1.385 -1.115,2.5 -2.5,2.5 -1.385,0 -2.5,-1.115 -2.5,-2.5 l 0,-19.999999 c 0,-1.385 1.115,-2.5 2.5,-2.5 z"
                 style="opacity:1;fill:#e7e7de;fill-opacity:1;stroke:none;stroke-width:5;stroke-miterlimit:4;stroke-dasharray:none;stroke-opacity:1"
                 transform="matrix(0.8660254,0.5,-0.5,0.8660254,0,0)" />
              <path
                 inkscape:connector-curvature="0"
                 id="path4020"
                 d="m -100.93166,20.252411 c 1.384996,0 2.499996,1.115 2.499996,2.5 l 0,20 c 0,1.385 -1.115,2.5 -2.499996,2.5 -1.385,0 -2.5,-1.115 -2.5,-2.5 l 0,-20 c 0,-1.385 1.115,-2.5 2.5,-2.5 z"
                 style="opacity:1;fill:#e7e7de;fill-opacity:1;stroke:none;stroke-width:5;stroke-miterlimit:4;stroke-dasharray:none;stroke-opacity:1"
                 transform="matrix(0.8660254,-0.5,0.5,0.8660254,0,0)" />
            </g>
            <g
               transform="matrix(0.19994183,0,0,0.19994183,275.63728,63.303917)"
               style="fill:#e7e7de;fill-opacity:1"
               id="g4022">
              <path
                 inkscape:connector-curvature="0"
                 id="path4024"
                 d="m -22.101412,91.285591 c 1.385,0 2.5,1.115 2.5,2.5 l 0,19.999999 c 0,1.385 -1.115,2.5 -2.5,2.5 -1.385,0 -2.5,-1.115 -2.5,-2.5 l 0,-19.999999 c 0,-1.385 1.115,-2.5 2.5,-2.5 z"
                 style="opacity:1;fill:#e7e7de;fill-opacity:1;stroke:none;stroke-width:5;stroke-miterlimit:4;stroke-dasharray:none;stroke-opacity:1"
                 transform="matrix(0.8660254,0.5,-0.5,0.8660254,0,0)" />
              <path
                 inkscape:connector-curvature="0"
                 id="path4026"
                 d="m -100.93166,20.252411 c 1.384996,0 2.499996,1.115 2.499996,2.5 l 0,20 c 0,1.385 -1.115,2.5 -2.499996,2.5 -1.385,0 -2.5,-1.115 -2.5,-2.5 l 0,-20 c 0,-1.385 1.115,-2.5 2.5,-2.5 z"
                 style="opacity:1;fill:#e7e7de;fill-opacity:1;stroke:none;stroke-width:5;stroke-miterlimit:4;stroke-dasharray:none;stroke-opacity:1"
                 transform="matrix(0.8660254,-0.5,0.5,0.8660254,0,0)" />
            </g>
            <g
               id="g4028"
               style="fill:#e7e7de;fill-opacity:1"
               transform="matrix(0.19994183,0,0,0.19994183,275.63728,71.571917)">
              <path
                 inkscape:connector-curvature="0"
                 id="path4030"
                 d="m -22.101412,91.285591 c 1.385,0 2.5,1.115 2.5,2.5 l 0,19.999999 c 0,1.385 -1.115,2.5 -2.5,2.5 -1.385,0 -2.5,-1.115 -2.5,-2.5 l 0,-19.999999 c 0,-1.385 1.115,-2.5 2.5,-2.5 z"
                 style="opacity:1;fill:#e7e7de;fill-opacity:1;stroke:none;stroke-width:5;stroke-miterlimit:4;stroke-dasharray:none;stroke-opacity:1"
                 transform="matrix(0.8660254,0.5,-0.5,0.8660254,0,0)" />
              <path
                 inkscape:connector-curvature="0"
                 id="path4032"
                 d="m -100.93166,20.252411 c 1.384996,0 2.499996,1.115 2.499996,2.5 l 0,20 c 0,1.385 -1.115,2.5 -2.499996,2.5 -1.385,0 -2.5,-1.115 -2.5,-2.5 l 0,-20 c 0,-1.385 1.115,-2.5 2.5,-2.5 z"
                 style="opacity:1;fill:#e7e7de;fill-opacity:1;stroke:none;stroke-width:5;stroke-miterlimit:4;stroke-dasharray:none;stroke-opacity:1"
                 transform="matrix(0.8660254,-0.5,0.5,0.8660254,0,0)" />
            </g>
          </g>
        </g>
      </g>
    </g>
    <g
       id="vr-head"
       inkscape:label="#g4067"
       transform="translate(-200.00609,0)">
      <path
         style="display:inline;opacity:1;fill:#e1967e;fill-opacity:1;stroke:none;stroke-width:5;stroke-miterlimit:4;stroke-dasharray:none;stroke-opacity:1"
         d="m 250.00023,29.549735 c 3.93678,0 7.4898,-2.943313 10.05865,-2.38e-4 2.56882,2.943071 4.1535,7.013712 4.1535,11.523981 0,0 0.10024,3.950624 0,5.920932 -0.1008,1.983813 -0.60392,5.92123 -0.60392,5.92123 -0.45692,4.47979 -2.19216,8.549909 -4.49581,11.500526 -1.15181,1.475308 -2.44572,2.325018 -3.94378,3.151624 -1.49805,0.826607 -3.20026,1.284384 -5.16863,1.284384 -1.96838,0 -3.6706,-0.457777 -5.16866,-1.284384 -1.49807,-0.826605 -2.79198,-1.676316 -3.94378,-3.151624 -2.30364,-2.950617 -4.03888,-7.020738 -4.49579,-11.500526 0,0 -0.50312,-3.937417 -0.60394,-5.92123 -0.10025,-1.970308 0,-5.920932 0,-5.920932 0,-4.510269 1.58466,-8.58091 4.15349,-11.523981 2.56885,-2.943075 6.12187,2.38e-4 10.05867,2.38e-4 z"
         id="path3930"
         inkscape:connector-curvature="0"
         sodipodi:nodetypes="sssssssssssssss" />
      <path
         inkscape:connector-curvature="0"
         id="path3932"
         d="m 242.59836,63.227588 a 7.4013024,7.4012806 0 0 0 7.40131,7.401291 7.4013024,7.4012806 0 0 0 7.40129,-7.401291 l -14.8026,0 z"
         style="display:inline;opacity:1;fill:#444b54;fill-opacity:1;stroke:none;stroke-width:5;stroke-miterlimit:4;stroke-dasharray:none;stroke-opacity:1" />
      <g
         style="display:inline"
         id="g3934"
         transform="matrix(1.1842081,0,0,1.1842046,187.0114,33.78416)">
        <path
           style="opacity:1;fill:#f8bd97;fill-opacity:1;stroke:none;stroke-width:0;stroke-miterlimit:4;stroke-dasharray:none;stroke-opacity:1"
           d="m 45.652176,9.1134748 a 5,5 0 0 1 -5,5.0000002 5,5 0 0 1 -5,-5.0000002 5,5 0 0 1 5,-5 5,5 0 0 1 5,5 z"
           id="path3936"
           inkscape:connector-curvature="0" />
        <path
           style="opacity:1;fill:#dc626f;fill-opacity:1;stroke:none;stroke-width:0;stroke-miterlimit:4;stroke-dasharray:none;stroke-opacity:1"
           d="m 43.152176,9.1134748 a 2.5,2.5 0 0 1 -2.5,2.5000002 2.5,2.5 0 0 1 -2.5,-2.5000002 2.5,2.5 0 0 1 2.5,-2.5 2.5,2.5 0 0 1 2.5,2.5 z"
           id="path3938"
           inkscape:connector-curvature="0" />
      </g>
      <g
         transform="matrix(1.1842081,0,0,1.1842046,216.70779,33.78416)"
         id="g3940"
         style="display:inline">
        <path
           style="opacity:1;fill:#f8bd97;fill-opacity:1;stroke:none;stroke-width:0;stroke-miterlimit:4;stroke-dasharray:none;stroke-opacity:1"
           d="m 45.652176,9.1134748 a 5,5 0 0 1 -5,5.0000002 5,5 0 0 1 -5,-5.0000002 5,5 0 0 1 5,-5 5,5 0 0 1 5,5 z"
           id="path3942"
           inkscape:connector-curvature="0" />
        <path
           style="opacity:1;fill:#dc626f;fill-opacity:1;stroke:none;stroke-width:0;stroke-miterlimit:4;stroke-dasharray:none;stroke-opacity:1"
           d="m 43.152176,9.1134748 a 2.5,2.5 0 0 1 -2.5,2.5000002 2.5,2.5 0 0 1 -2.5,-2.5000002 2.5,2.5 0 0 1 2.5,-2.5 2.5,2.5 0 0 1 2.5,2.5 z"
           id="path3944"
           inkscape:connector-curvature="0" />
      </g>
      <g
         id="g3946"
         transform="matrix(1.1841954,0,0,1.1841919,232.28251,-47.198491)"
         style="display:inline;fill:#444b54;fill-opacity:1">
        <path
           id="path3948"
           d="M 12.5,55 C 5.575,55 -0.85894054,60.628476 0,67.5 l 1.25,10 27.5,0 1.25,-10 C 30,60.575 24.425,55 17.5,55 l -5,0 z"
           style="opacity:1;fill:#444b54;fill-opacity:1;stroke:none;stroke-width:0;stroke-miterlimit:4;stroke-dasharray:none;stroke-opacity:1"
           inkscape:connector-curvature="0" />
        <path
           style="opacity:1;fill:#444b54;fill-opacity:1;stroke:none;stroke-width:0;stroke-miterlimit:4;stroke-dasharray:none;stroke-opacity:1"
           d="M 25,58 A 10,5 0 0 1 15,63 10,5 0 0 1 5,58 10,5 0 0 1 15,53 10,5 0 0 1 25,58 Z"
           id="path3950"
           inkscape:connector-curvature="0" />
        <path
           style="opacity:1;fill:#444b54;fill-opacity:1;stroke:none;stroke-width:0;stroke-miterlimit:4;stroke-dasharray:none;stroke-opacity:1"
           d="m 19.375,53.5 a 4.375,5 0 0 1 -4.375,5 4.375,5 0 0 1 -4.375,-5 4.375,5 0 0 1 4.375,-5 4.375,5 0 0 1 4.375,5 z"
           id="path3952"
           inkscape:connector-curvature="0" />
      </g>
      <path
         sodipodi:nodetypes="sssssssssssssssss"
         inkscape:connector-curvature="0"
         id="path3954"
         d="m 250.00023,27.13186 c 4.51031,0 8.58097,-2.943326 11.52407,-2.38e-4 2.94308,2.943087 4.7586,7.013747 4.7586,11.524038 0,0 0.11479,3.950644 0,5.920959 -0.11551,1.983823 -0.6919,5.92126 -0.6919,5.92126 -0.26173,2.239906 -0.88962,4.377393 -1.78197,6.323733 -0.89235,1.94634 -2.23364,3.701533 -3.55326,5.176849 -1.31962,1.475315 -2.61759,2.325029 -4.3339,3.151639 -1.7163,0.826611 -3.66648,1.099928 -5.92163,1.099928 -2.25516,0 -4.20535,-0.273317 -5.92165,-1.099928 -1.71632,-0.826608 -3.01428,-1.676326 -4.3339,-3.151639 -1.31963,-1.475316 -2.66091,-3.230509 -3.55326,-5.176849 -0.89235,-1.946341 -1.52023,-4.083828 -1.78197,-6.323733 0,0 -0.5764,-3.937437 -0.69192,-5.92126 -0.11479,-1.970315 0,-5.920959 0,-5.920959 0,-4.510291 1.81553,-8.580951 4.7586,-11.524038 2.94311,-2.943088 7.01377,2.38e-4 11.52409,2.38e-4 z"
         style="display:inline;opacity:1;fill:#f8bd97;fill-opacity:1;stroke:none;stroke-width:5;stroke-miterlimit:4;stroke-dasharray:none;stroke-opacity:1" />
      <path
         style="display:inline;opacity:1;fill:#fffce6;fill-opacity:1;stroke:none;stroke-width:5;stroke-miterlimit:4;stroke-dasharray:none;stroke-opacity:1"
         d="m 244.07875,54.856778 a 5.9211308,5.9211133 0 0 0 5.92113,5.921117 5.9211308,5.9211133 0 0 0 5.92113,-5.921117 l -11.84226,0 z"
         id="path3956"
         inkscape:connector-curvature="0" />
      <g
         transform="matrix(1.0481727,0,0,1.0481696,197.5919,-1.5229888)"
         id="g3958">
        <path
           transform="matrix(0.93969262,-0.34202014,0.34202014,0.93969262,0,0)"
           style="opacity:1;fill:#444b54;fill-opacity:1;stroke:none;stroke-width:5;stroke-miterlimit:4;stroke-dasharray:none;stroke-opacity:1"
           d="m 22.515463,65.246071 4.999894,0 c 0.692485,0 1.249973,0.557488 1.249973,1.249973 0,0.692486 -0.557488,1.249974 -1.249973,1.249974 l -4.999894,0 c -0.692485,0 -1.249973,-0.557488 -1.249973,-1.249974 0,-0.692485 0.557488,-1.249973 1.249973,-1.249973 z"
           id="path3960"
           inkscape:connector-curvature="0" />
        <path
           transform="matrix(0.93969262,0.34202014,-0.34202014,0.93969262,0,0)"
           style="opacity:1;fill:#444b54;fill-opacity:1;stroke:none;stroke-width:5;stroke-miterlimit:4;stroke-dasharray:none;stroke-opacity:1"
           d="m 66.45335,31.044268 4.999894,0 c 0.692485,0 1.249974,0.557488 1.249974,1.249973 0,0.692485 -0.557489,1.249973 -1.249974,1.249973 l -4.999894,0 c -0.692485,0 -1.249973,-0.557488 -1.249973,-1.249973 0,-0.692485 0.557488,-1.249973 1.249973,-1.249973 z"
           id="path3962"
           inkscape:connector-curvature="0" />
      </g>
      <g
         id="g3965"
         transform="matrix(0.44544,0,0,0.44543868,247.77302,6.7140911)"
         style="display:inline;fill:#ef9688;fill-opacity:1">
        <path
           style="opacity:1;fill:#ef9688;fill-opacity:1;stroke:none;stroke-width:0;stroke-miterlimit:4;stroke-dasharray:none;stroke-opacity:1"
           d="m 5,70 c 2.77,0 5,2.23 5,5 l 0,20 c 0,2.77 -2.23,5 -5,5 -2.77,0 -5,-2.23 -5,-5 L 0,75 c 0,-2.77 2.23,-5 5,-5 z"
           id="path3967"
           inkscape:connector-curvature="0" />
        <path
           transform="matrix(0,-1,1,0,0,0)"
           style="opacity:1;fill:#ef9688;fill-opacity:1;stroke:none;stroke-width:0;stroke-miterlimit:4;stroke-dasharray:none;stroke-opacity:1"
           d="m -92.5,-7.5 c 2.77,0 5,2.7875 5,6.25 l 0,12.5 c 0,3.4625 -2.23,6.25 -5,6.25 -2.77,0 -5,-2.7875 -5,-6.25 l 0,-12.5 c 0,-3.4625 2.23,-6.25 5,-6.25 z"
           id="path3969"
           inkscape:connector-curvature="0" />
      </g>
    </g>
    <path
       style="opacity:1;fill:#2196f3;fill-opacity:1;stroke:none;stroke-width:5;stroke-miterlimit:4;stroke-dasharray:none;stroke-opacity:1"
       d="M 50 0 A 50 50 0 0 0 0 50 A 50 50 0 0 0 13.033203 83.580078 A 40 40 0 0 1 15.455078 78.775391 A 45 45 0 0 1 5 50 A 45 45 0 0 1 50 5 A 45 45 0 0 1 95 50 A 45 45 0 0 1 84.554688 78.810547 A 40 40 0 0 1 86.957031 83.589844 A 50 50 0 0 1 50 100 A 50 50 0 0 0 100 50 A 50 50 0 0 0 50 0 z M 13.087891 83.638672 A 50 50 0 0 0 16.462891 87.007812 A 50 50 0 0 1 13.087891 83.638672 z M 16.769531 87.277344 A 50 50 0 0 0 20.273438 90.134766 A 50 50 0 0 1 16.769531 87.277344 z M 20.753906 90.478516 A 50 50 0 0 0 24.345703 92.855469 A 50 50 0 0 1 20.753906 90.478516 z M 25.103516 93.289062 A 50 50 0 0 0 28.644531 95.152344 A 50 50 0 0 1 25.103516 93.289062 z M 29.744141 95.644531 A 50 50 0 0 0 33.162109 97.027344 A 50 50 0 0 1 29.744141 95.644531 z M 34.570312 97.494141 A 50 50 0 0 0 37.839844 98.451172 A 50 50 0 0 1 34.570312 97.494141 z M 39.564453 98.837891 A 50 50 0 0 0 42.640625 99.412109 A 50 50 0 0 1 39.564453 98.837891 z M 44.691406 99.660156 A 50 50 0 0 0 47.775391 99.921875 A 50 50 0 0 1 44.691406 99.660156 z "
       id="path4422" />
  </g>
  <g
     inkscape:groupmode="layer"
     id="layer1"
     inkscape:label="vr-custom"
     style="display:none"
     sodipodi:insensitive="true">
    <path
       style="display:inline;opacity:1;fill:#f0f1f5;fill-opacity:1;stroke:none;stroke-width:0;stroke-miterlimit:4;stroke-dasharray:none;stroke-opacity:1"
       d="M 54.15,39.26025 A 4.0871364,2.7247495 0 0 0 58.237136,41.985 4.0871364,2.7247495 0 0 0 62.324272,39.26025 4.0871364,2.7247495 0 0 0 58.237136,36.535501 4.0871364,2.7247495 0 0 0 54.15,39.26025 Z"
       id="vr-eye-l"
       inkscape:connector-curvature="0"
       inkscape:label="#path3943" />
    <path
       style="display:inline;opacity:1;fill:#444b54;fill-opacity:1;stroke:none;stroke-width:0;stroke-miterlimit:4;stroke-dasharray:none;stroke-opacity:1"
       d="m 55.614557,39.26025 a 1.5326763,1.5326717 0 0 0 1.532676,1.532672 1.5326763,1.5326717 0 0 0 1.532676,-1.532672 1.5326763,1.5326717 0 0 0 -1.532676,-1.532671 1.5326763,1.5326717 0 0 0 -1.532676,1.532671 z"
       id="vr-pupil-l"
       inkscape:connector-curvature="0"
       inkscape:label="#path3945" />
    <path
       style="display:inline;opacity:1;fill:#f0f1f5;fill-opacity:1;stroke:none;stroke-width:0;stroke-miterlimit:4;stroke-dasharray:none;stroke-opacity:1"
       d="M 45.849272,39.26025 A 4.0871364,2.7247495 0 0 1 41.762136,41.985 4.0871364,2.7247495 0 0 1 37.675,39.26025 a 4.0871364,2.7247495 0 0 1 4.087136,-2.724749 4.0871364,2.7247495 0 0 1 4.087136,2.724749 z"
       id="vr-eye-r"
       inkscape:connector-curvature="0"
       inkscape:label="#path3949" />
    <path
       style="display:inline;opacity:1;fill:#444b54;fill-opacity:1;stroke:none;stroke-width:0;stroke-miterlimit:4;stroke-dasharray:none;stroke-opacity:1"
       d="m 44.384715,39.26025 a 1.5326763,1.5326717 0 0 1 -1.532676,1.532672 1.5326763,1.5326717 0 0 1 -1.532676,-1.532672 1.5326763,1.5326717 0 0 1 1.532676,-1.532671 1.5326763,1.5326717 0 0 1 1.532676,1.532671 z"
       id="vr-pupil-r"
       inkscape:connector-curvature="0"
       inkscape:label="#path3951" />
    <path
       inkscape:connector-curvature="0"
       id="vr-brow-l"
       d="m 54.027257,35.577574 7.683311,-1.011525 c 0.709424,-0.0934 1.355737,0.402538 1.449135,1.111961 0.0934,0.709423 -0.402536,1.355737 -1.111959,1.449134 l -7.683313,1.011524 c -0.709423,0.0934 -1.355738,-0.402537 -1.449135,-1.111961 -0.0934,-0.709423 0.402537,-1.355736 1.111961,-1.449133 z"
       style="display:inline;opacity:1;fill:#444b54;fill-opacity:1;stroke:none;stroke-width:0;stroke-miterlimit:4;stroke-dasharray:none;stroke-opacity:1"
       inkscape:label="#path3953" />
    <path
       inkscape:connector-curvature="0"
       id="vr-brow-r"
       d="m 38.289431,34.566054 7.683313,1.011524 c 0.709423,0.0934 1.205357,0.739711 1.111961,1.449134 -0.0934,0.709424 -0.739713,1.205358 -1.449136,1.111961 l -7.683313,-1.011525 c -0.709424,-0.09339 -1.205358,-0.73971 -1.11196,-1.449133 0.09339,-0.709424 0.739711,-1.205358 1.449135,-1.111961 z"
       style="display:inline;opacity:1;fill:#444b54;fill-opacity:1;stroke:none;stroke-width:0;stroke-miterlimit:4;stroke-dasharray:none;stroke-opacity:1"
       inkscape:label="#path3955" />
  </g>
</svg>
